<?xml version="1.0" standalone="no"?><!DOCTYPE svg PUBLIC "-//W3C//DTD SVG 1.1//EN" "http://www.w3.org/Graphics/SVG/1.1/DTD/svg11.dtd"><svg class="icon" width="128px" height="42.67px" viewBox="0 0 3072 1024" version="1.1" xmlns="http://www.w3.org/2000/svg"><path d="M857.6 661.333333c53.333333 19.2 162.133333 38.4 249.6 38.4 96 0 149.333333-25.6 153.6-68.266666 4.266667-38.4-34.133333-42.666667-142.933333-68.266667-149.333333-36.266667-243.2-93.866667-234.666667-183.466667 10.666667-104.533333 151.466667-183.466667 364.8-183.466666 104.533333 0 206.933333 6.4 258.133333 25.6l-17.066666 132.266666c-34.133333-12.8-164.266667-27.733333-253.866667-27.733333s-136.533333 27.733333-138.666667 59.733333c-4.266667 38.4 42.666667 40.533333 160 72.533334 157.866667 40.533333 226.133333 96 217.6 183.466666-10.666667 102.4-136.533333 189.866667-388.266666 189.866667-104.533333 0-194.133333-19.2-245.333334-38.4l17.066667-132.266667z m1478.4-430.933333c573.866667-108.8 622.933333 85.333333 603.733333 258.133333l-34.133333 317.866667h-181.333333l29.866666-290.133333c6.4-64 46.933333-189.866667-149.333333-183.466667-68.266667 2.133333-102.4 10.666667-102.4 10.666667s-6.4 76.8-12.8 134.4l-34.133333 328.533333h-179.2l36.266666-324.266667 23.466667-251.733333z m-723.2-14.933333c40.533333-4.266667 104.533333-8.533333 189.866667-8.533334 145.066667 0 260.266667 25.6 332.8 78.933334 64 49.066667 108.8 130.133333 96 245.333333-10.666667 106.666667-66.133333 183.466667-149.333334 230.4-74.666667 44.8-168.533333 61.866667-309.333333 61.866667-83.2 0-162.133333-4.266667-221.866667-12.8l61.866667-595.2z m119.466667 475.733333c14.933333 2.133333 32 6.4 68.266666 6.4 145.066667 0 245.333333-70.4 256-170.666667 14.933333-145.066667-74.666667-194.133333-228.266666-194.133333-19.2 0-46.933333 0-61.866667 2.133333l-34.133333 356.266667z m-979.2 121.6c-34.133333 12.8-104.533333 19.2-204.8 19.2-283.733333 0-437.333333-134.4-418.133334-311.466667C151.466667 311.466667 379.733333 192 629.333333 192c96 0 153.6 8.533333 206.933334 21.333333l-17.066667 142.933334c-36.266667-12.8-119.466667-23.466667-185.6-23.466667-147.2 0-270.933333 44.8-285.866667 181.333333-12.8 123.733333 74.666667 183.466667 238.933334 183.466667 57.6 0 142.933333-8.533333 181.333333-19.2l-14.933333 134.4z" /></svg>