<?xml version="1.0" standalone="no"?><!DOCTYPE svg PUBLIC "-//W3C//DTD SVG 1.1//EN" "http://www.w3.org/Graphics/SVG/1.1/DTD/svg11.dtd"><svg class="icon" width="200px" height="200.00px" viewBox="0 0 1024 1024" version="1.1" xmlns="http://www.w3.org/2000/svg"><path fill="#000000" d="M810.137703 213.860762c-164.388001-164.4187-431.887404-164.4187-596.277452 0-164.417677 164.388001-164.417677 431.889451 0 596.278475 164.390048 164.417677 431.890474 164.417677 596.277452 0C974.557426 645.750213 974.557426 378.248763 810.137703 213.860762zM767.347131 767.345596c-140.797723 140.829446-369.927237 140.797723-510.693238 0-140.828422-140.797723-140.828422-369.895515 0-510.708588 140.767024-140.783397 369.896538-140.813073 510.693238 0C908.14383 397.420405 908.14383 626.578572 767.347131 767.345596z"  /><path fill="#000000" d="M721.450824 521.495258 515.404028 521.495258l0.028653-227.948619c0-15.124466-12.362562-27.458375-27.501354-27.458375s-27.443026 12.33391-27.443026 27.458375l0 235.115855c0 0.835018-1.013073 20.48659 12.094456 34.459836 8.331759 8.809643 20.038382 13.288654 35.148521 13.288654l213.720569 0.031722c15.140839 0 27.472702-12.304234 27.472702-27.474748C748.922503 533.887496 736.620315 521.584286 721.450824 521.495258z"  /></svg>